<svg id="Layer_1" data-name="Layer 1" xmlns="http://www.w3.org/2000/svg" viewBox="0 0 800 800"><defs><style>.cls-1{fill:#898989;}.cls-2{fill:#fff;}.cls-3{fill:#f6f6f6;}.cls-4{fill:#e1e1e1;}.cls-5{fill:#e2e2e2;}.cls-6{fill:#e0e0e0;}.cls-7{fill:#e4e4e4;}.cls-8{fill:#e3e3e3;}.cls-9{fill:#fafafa;}.cls-10{fill:#fcfcfc;}.cls-11{fill:#ddd;}.cls-12{fill:#dfdfdf;}.cls-13{fill:#e9e9e9;}</style></defs><g id="YF2mbR.tif"><path class="cls-1" d="M498.53,257.66c5.91,1.75,8.84,6.6,11.2,11.6,3.87,8.17,7.38,16.53,10.73,24.93a58,58,0,0,0,17.19,24.07c11.89,9.72,9,28.1,1.08,35.19-3.15,2.82-8.59,3.27-13.1,4.29-2.21.5-4.69-.18-8.21-.4a34.05,34.05,0,0,0,9,16.52c7,7.33,10.64,15.6,9.86,26-.73,9.86-5.88,17.05-15.81,18.31a107.15,107.15,0,0,1-21.49.11c-3.61-.28-5.06-.1-5,3.92.22,15.71-1.48,12.94,12.31,12.8,19.27-.21,38.44-.1,56.77,7,4.15,1.61,5.48-.87,7-3.93,12.21-24.66,23.89-49.6,37-73.74a128.39,128.39,0,0,1,22.44-29.28c12-11.85,28.35-16.29,44.6-17.19,36-2,65.08,12.92,87.88,40.42,23.54,28.4,32.65,62,34.48,98.09.24,4.79.72,9.57,1.1,14.35l0,56.59c-.6,6.06-.65,12.24-1.92,18.15-4.7,21.81-9.33,43.66-14.88,65.27-9,35.09-21.58,68.65-44.88,97.2a6.6,6.6,0,0,0-1.25,4.95c3.81,16.48-1.21,30.11-14,40.52-17.67,14.42-37,24.57-61.07,22.77-9.5-.7-16.55-4.2-22.24-11.31-2-2.52-3.76-5.26-6.18-8.67A60.18,60.18,0,0,1,628,762c-5.83,7.75-11.27,15.88-17.8,23-4.86,5.29-10.13,5.4-14.42,2.39-4.73-3.32-5.63-7.7-3-14.71,17.36-16.25,26-37.17,31.73-59.63,1.37-5.37,2-10.18-3-14.89-2.69-2.55-3.5-7.57-4.15-11.64-.69-4.33-.3-8.84-.19-13.27A16.81,16.81,0,0,1,631,657c2.48-.46,5-.85,7.42-1.26.16-2.46-.06-4.57.47-6.46a38.65,38.65,0,0,0-2.62-27.55c-9.07-18.72-18-37.71-29.2-55.12-8-12.46-19.77-22.55-29.85-33.69l-12.12-12.21a8.06,8.06,0,0,0-1.16-1.8c-12.88-11.43-9.4-9.16-18.25,1.71l-3,4-13.4,14.82.05-.06c-3,2-7.05,3.55-6.18,8.16,4.43,23.46,2.8,47.17,2.46,70.75-.27,18.78-2,37.59-4,56.29-2.13,19.81-5.47,39.49-8.07,59.26-1.11,8.43-1.7,16.94-2.52,25.41l1.56,1c4.65-5.77,9.59-11.35,13.87-17.39s7.65-12.62,11.8-18.72c3.6-5.29,9.86-6.74,14.46-3.93a10.58,10.58,0,0,1,3.5,15C549.38,746.3,542,757.09,534.81,768l-28.35,22.72c-6.41,5.15-13.42,9.73-19.09,15.6-10.45,10.82-19.61,22.92-32.52,31.2-1.26.82-1.93,2.56-2.87,3.87H291.3c-3.46-1.65-6.88-3.36-10.37-4.95-6.89-3.13-13.09-7.76-21.67-2.54-3.7,2.25-7.71,3.56-10.07,7.49H223.7l16.8-24.21c-6.42-5.2-13.05-10.71-19.9-15.92-.87-.66-3.75-.33-4.29.48-8.75,13.12-17.28,26.4-25.86,39.65H166.08c7.29-12.17,14.48-24.41,21.93-36.47,3.69-6,8.06-11.5,11.71-17.48.86-1.42.87-4.56-.11-5.73-13-15.44-18.83-34.17-24.41-53-14.78-49.66-13.27-100.14-5.9-150.6,2.39-16.34,7.91-32.21,12-48.29.32-1.22.71-2.42,1.41-4.78-7.77,0-15.16-1-22.16.26-8.28,1.46-16.8,3.72-24.19,7.6-17.94,9.4-32.34,22.72-38.43,42.87-4.85,16.07-9,32.37-13.36,48.58-.43,1.6-.28,3.36-.78,4.92-1.41,4.42,0,7,4.09,9.36,2.53,1.47,5.36,4.94,5.46,7.61.27,7.44-.9,14.93-1.3,22.42a11.49,11.49,0,0,0,1,5.08c1.81,4.16,5.16,8.07,5.6,12.31a88.22,88.22,0,0,1-.41,23.75c-2.68,15.47-13.85,24.57-27.23,30.46-17.17,7.55-35.53,5.87-53.51,3.93C7.52,743.17.59,734,1.52,723.5c.87-9.68,3.09-19.3,5.52-28.74C8.58,688.82,8.4,684,5,678.59A27.66,27.66,0,0,1,16.5,638.66c3.34-1.65,5.27-3.71,5.77-7.35,2-14.81,4.8-29.55,6-44.41,2-24,9.55-45.34,26.26-63.11,10.21-10.86,20.12-22,30.14-33.07a24.25,24.25,0,0,0,1.94-3.3c-6.88.85-12.74,1.78-18.64,2.23-7.15.55-14.41,1.49-21.46.72a24.52,24.52,0,0,1-12.63-5.95c-11.23-9.84-16.37-22.22-16.75-37.63-.49-20,6.82-37,15.61-54.07,7.64-14.87,17.39-27.31,31.8-35.89,21.22-12.64,42.09-25.94,63.83-37.6,9.75-5.23,21.26-7.17,32-10.63,1.92-.62,3.82-1.34,5.73-2l22.2-5.51a9.32,9.32,0,0,0,2.19-.13c21.91-6.95,44.73-9.08,67.27-12.6,10.54-1.65,21.21-2.49,31.85-3.38,13.2-1.1,26.41-2,39.64-2.68,2.74-.14,6.55.37,8.12,2.13a16.59,16.59,0,0,1,4.19,10c0,4.92-4,8.15-8.64,8.71-11.68,1.39-23.43,2.19-35.15,3.19-9.34.8-18.69,1.53-28,2.29a43.12,43.12,0,0,0-5,.22c-28.41,4.51-56.88,8.78-84.56,17-15.2,4.5-31.31,7.21-45.32,14.14-20.6,10.19-39.77,23.27-59.36,35.44-6.86,4.26-13.7,8.88-17.52,16.53l-8.4,16.26C40.79,420.76,37.51,434.9,38.88,450c.37,4.17,2.66,8.16,4.07,12.23l4.44,5.19c2.17.73,4.42,2.28,6.49,2.08,23.51-2.35,46.8-5.48,69.35-13.42,22.76-8,45.92-15,69.11-21.65,17.55-5.06,35.63-8.25,53.11-13.51a459.07,459.07,0,0,1,70.7-15.76,159.27,159.27,0,0,1,25.94-1c9.2.26,14.26,9.35,9,16.34-2.05,2.71-6.81,4.84-10.29,4.78-20.91-.37-41.09,4-61.19,8.79-17.94,4.25-35.73,9.18-53.58,13.84-3,.77-5.88,1.68-8.83,2.53,4.36,13.69.41,18.91-13.72,18.95-10.9,0-21.81-.36-32.68.08-17.09.68-33.15,4.93-47,15.64-2.39,1.7-4.91,3.23-7.13,5.12A317.46,317.46,0,0,0,69,540.15c-5.27,7-9.29,14.84-13.88,22.3-1.82,7.88-4.16,15.69-5.34,23.66-2.27,15.32-3.89,30.73-5.77,46.1-.12,1-.12,2.07-.19,3.4,4.77-.54,9.09-1.26,13.44-1.46,3.25-.15,4.37-1.61,4.93-4.65,1.53-8.34,3.15-16.68,5.16-24.92,2.06-8.41,4.62-16.7,7-25,.63-1.91,1.37-3.79,1.87-5.74,2.79-10.81,7-21,14.14-29.67,12.34-14.93,26.31-27.74,45-34.38l-.13,0c17.15-5.86,34.82-7.36,52.82-6.71,1.48.05,3.42-2.47,4.45-4.21.76-1.28.3-3.25.51-4.9a11.14,11.14,0,0,1,10.17-10c5.14-.28,10.45,3.46,10.77,9.07.31,5.35-.82,10.88-1.93,16.2-.74,3.54-2.53,6.87-3.86,10.29L203,531.46c3.2,0,5,0,6.76,0,17.7-.53,35.39-1.33,53.1-1.56,21-.27,42.1.27,63.15-.16,22.3-.46,44.69-.57,66.85-2.78,26.44-2.63,52.73-6.64,79.39-6.7,6.15,0,12.3-.93,19.69-1.53L485.44,504c-1.79-4.63-3.49-9.3-5.37-13.89-2.48-6.05-1-11.56,4-14.46s10.56-1.48,14.49,3.83a15.19,15.19,0,0,1,2.53,4.26c1.21,3.93,3.88,4.69,7.62,4.65,13.09-.16,26.19,0,39.28-.07,7.64,0,14.85,1.76,20.63,6.69,8.41,7.15,16.39,14.82,24.38,22.43,16.5,15.72,31.47,32.67,42.19,53,5.92,11.25,12.08,22.37,18.13,33.55,4.95,13.93,8.67,28.12,9,43,.07,3.16,1.86,3.41,4.43,3.23,6.59-.47,13.21-1.16,19.8-1,5.4.17,6.69-2.33,6.56-6.94-.34-12.92-3.8-25-9.45-36.56-.55-1.56-1-3.17-1.65-4.67C665.68,565,644.41,532.16,617,503.35c-15.42-16.18-33.65-28.09-53.34-38C541.18,454.1,516.93,456,493,456.8c-10.26.33-20.19-7.86-20.27-18q-.1-14.41.16-28.84a21.28,21.28,0,0,1,8.45-16.74c5.45-4.35,10.36-4.63,15.44,0a15.77,15.77,0,0,0,13.19,4.2,28.91,28.91,0,0,0,4.55-1.22c-.5-1.65-.49-3.84-1.57-4.88-13-12.47-16.85-29.17-21.3-45.58-3.31-12.2,4-19.8,16.35-16.84,3.25.78,6.12,3.14,9.2,4.69,1.5.76,3.09,1.32,4.64,2a4.2,4.2,0,0,0-1.21-3.19C511,322,503.12,310.59,498.39,297A107.25,107.25,0,0,0,488.73,276C483.44,267.39,487.35,257,498.53,257.66ZM289.05,816.05l-.12-.07c8.62,3.66,16.94,8.62,25.93,10.73,29.3,6.9,59.25,7.48,89.21,7.13,16.08-.2,29.34-7.55,41.86-16.72l3.83-3.44L473,788.16l5.63-7.78q4.53-11.1,9.07-22.2l-.09.16c1-3.34,2.51-6.62,2.91-10,1.21-10.08,1.66-20.27,3-30.33,2.69-20.15,7.11-40.16,8.38-60.38,1.89-30,1.76-60.21,2.25-90.32.07-4.61-1.17-9.23-2-15.15l-4.92,4Q478,566.37,458.83,576.66c-16.22,8.71-32.13,18.08-48.72,26C394.7,610,378.64,616,362.69,622.16c-5.29,2-10.78,1.19-15.85-2.13a49.23,49.23,0,0,0-10.92-5.24c-14.09-4.88-28.18-9.8-42.45-14.14-10.89-3.31-22.11-5.52-33.06-8.7-9.53-2.76-18.68-7.18-28.35-9.08A144.51,144.51,0,0,1,195,570.57c-3.2-3-3.39-.13-3.67,2-.94,7.13-2,14.25-2.62,21.41-2.75,31.26-6.08,62.58-.12,93.79,2.9,15.15,7,30.06,10.61,45.07l-.11-.19,9,22.61c.74,1.35,1.49,2.69,2.24,4l16.31,17.85,15.79,13.69,25.3,16.26Zm472.34-216.4c4.62-20.67,11.74-41.16,13.3-62.06,2.68-35.82,3.16-72-2.77-107.71-2.24-13.5-6.21-26.56-13.83-38.19-5-7.71-9.46-15.81-15.07-23-13.42-17.32-32.76-26.22-53.17-29.17-26.76-3.87-49.2,6.25-62.27,31.57-13.46,26.1-26.32,52.52-39.59,78.73-1.53,3-.36,4.41,2,5.75,4.95,2.85,10.6,4.93,14.74,8.68,14.06,12.74,28.33,25.4,41.16,39.33,20.92,22.71,36.75,49.07,50.21,76.75,9.71,20,19.15,40.16,18.45,63.23-.09,3,1.35,3.75,4.06,3.79,9,.14,17.64,1.37,23.21,11.77,2.89-7.23,5.64-13.06,7.56-19.14C753.59,626.58,757.41,613.09,761.39,599.65ZM687.62,699.1l-.11-.81c-9.81,1.49-19.58,3.28-29.42,4.37-6.78.74-8.85,4-8.18,10.45.35,3.39-.75,6.93-1.16,10.4-1.11,9.45-1.8,18.89,4.73,26.93,1.4,1.73,3.45,3.88,5.4,4.09,21.88,2.37,38.77-7.32,52.86-23a11,11,0,0,0,.86-14.34c-3.56-5.09-8.36-9.37-11.5-14.66-2.28-3.84-4.8-4.53-8.54-4C690.93,698.83,689.27,698.93,687.62,699.1ZM39,723.93l.19,1.06c7.56-1.27,15.36-1.79,22.64-4s13.72-7.25,15.54-15.09c1.26-5.42.33-11.39.1-17.1-.14-3.75-1.65-5.4-6.08-4.44-13,2.78-26,4.93-39,7.52a5.07,5.07,0,0,0-3.37,2.86c-2.18,8.19-4.07,16.45-6,24.71-.69,3,.68,4.53,3.81,4.5C30.84,723.89,34.9,723.93,39,723.93Zm679.3-52.67c-.4-.86-.79-1.72-1.18-2.57-5.05.59-10.13,1.89-15.13,1.64-20.62-1.05-40.69,1.94-60.49,7.32-1.2.32-2.05,1.91-3.07,2.91,1,.8,2.07,2.23,3.14,2.27a64.14,64.14,0,0,0,10.46-.49c12-1.58,24-3.53,36-4.92,7.3-.84,14.74-.5,22-1.51C712.91,675.5,715.51,672.88,718.25,671.26ZM31.88,658.18c-4-.56-8.67-1.53-9.15,4.57s2.23,8.55,9.73,7.36c11.29-1.79,22.48-4.23,33.68-6.53a9.15,9.15,0,0,0,4.31-2.3c1.08-1,1.56-2.73,2.3-4.13-1.43-.49-2.89-1.46-4.3-1.38C56.26,656.47,44.07,657.36,31.88,658.18ZM525.63,511.5l-.89-1.3H510.59c1.83,4.27,3.25,7.6,5.15,12.05Z"/><path class="cls-2" d="M592.74,772.65c-2.62,7-1.72,11.39,3,14.71,4.29,3,9.56,2.9,14.42-2.39,6.53-7.11,12-15.24,17.8-23a60.18,60.18,0,0,0,3.32-5.78c2.42,3.41,4.17,6.15,6.18,8.67,5.69,7.11,12.74,10.61,22.24,11.31,24.08,1.8,43.4-8.35,61.07-22.77,12.74-10.41,17.76-24,14-40.52a6.6,6.6,0,0,1,1.25-4.95c23.3-28.55,35.88-62.11,44.88-97.2,5.55-21.61,10.18-43.46,14.88-65.27,1.27-5.91,1.32-12.09,1.92-18.15h1.17V841.41H452c.94-1.31,1.61-3,2.87-3.87,12.91-8.28,22.07-20.38,32.52-31.2,5.67-5.87,12.68-10.45,19.09-15.6L534.81,768c2.71.19,5.44.2,8.11.64,1.19.2,2.23,1.25,3.34,1.91-1.61,2-3.34,3.87-4.81,5.95-4.46,6.32-1,15.4,6.59,15.89a15.9,15.9,0,0,0,10.7-4c5.81-5.52,10.69-12,15.94-18.15,4.87-.92,9.71-2.16,14.62-2.65C592.62,767.25,593.63,769.57,592.74,772.65Z"/><path class="cls-3" d="M798.83,527.33h-1.17l0-56.59h1.2Z"/><path class="cls-4" d="M135.33,509.75c-18.66,6.64-32.63,19.45-45,34.38C83.17,552.84,79,563,76.22,573.8c-.5,2-1.24,3.83-1.87,5.74-.75,1.25-1.83,2.4-2.18,3.75C68.33,598.08,64.5,612.87,61,627.72c-.76,3.21-2,4.95-5.34,5-2,.06-4,.51-6,.77-3,.37-4-.78-3.54-3.82,1.59-11.29,3-22.61,4.5-33.91,1.5-11.12,3.06-22.24,4.6-33.36C59.74,555,63.76,547.1,69,540.15a317.46,317.46,0,0,1,47.64-49.93c2.22-1.89,4.74-3.42,7.13-5.12a32.19,32.19,0,0,0,4.58-1.84c14.64-8.75,30.55-12.59,47.51-12.54,10.51,0,21,.11,31.54,0,9.77-.13,14.72-6.56,12.71-16.15-.21-1-.41-2-.63-3.08L237,456.3c6.82,1.56,3.53-7.05,6.88-7.64,8,1.34,14.54-.71,20.63-3.58,3-1.43,5.1-4.95,9-1.68.35.29,2.41-.51,2.67-1.19,1.85-4.88,4.26-3.11,5.81-1.29l14.53-3.44,1.56,3.58c1.7-.78,3-1.35,4.33-2,5.7-2.89,11.33-5.94,17.13-8.62,1-.46,2.73.59,4.12.95-1,1.06-1.94,2.18-3,3.14a1.7,1.7,0,0,1-1.07.4v9.36c1.74-1,4-1.6,4.17-2.52.62-4.19,3.6-3.82,6.54-4.39a146.58,146.58,0,0,0,18-4.36c2.13-.7,5.17-3.47,5.07-5.14-.21-3.74,1.5-4.91,4.29-5.95,4.61-1.73,4.5-5.62,2.47-8.6-3.12-4.62-6.49-9.09-12-11.77-9-4.35-18.48-3.17-27.53-2.63-3.82.23-6.88,1.7-10.17-2.16-.27,6.92-5,5.84-9.07,6.72.66-1.9,1.15-3.34,1.91-5.53a31.93,31.93,0,0,1-4.78.87c-4,.06-8.58-1-9.21,5.21,0,.45-1.47,1-2.3,1.07a61.87,61.87,0,0,1-8,.79c-1.38,0-2.77-.71-5.21-1.4l7.35-4.8-.51-1.26-11.83.79c.84,3.19,1.72,6.51,2.66,10.06a6.5,6.5,0,0,1-2.36,0c-4.8-1.73-9-2-11.74,3.5-.36.72-2.8,1.33-3.34.87-4.81-4-7.86-.52-11.25,2.21-1,.79-2.35,1.11-5,2.32l5.36-7.28c-5.83,0-10.18-.23-14.48.12-1.51.12-2.9,1.65-4.35,2.53l4,3.46-1.35,5c-5.5-1.8-8.69-4.48-7.23-10.29l-10.25,2.19,10.94,7.36c-7.43,2.4-14.3,3.8-20.34,6.85-4,2-7.17,2.07-10.86.43-1.27-.57-2.5-1.24-4.21-2.1l-.87,4.79-11.57,1.44a17.48,17.48,0,0,0,1.94-1.74c1-1.36,2-2.77,3-4.16-1.67-.07-3.5-.6-5-.1-2.17.73-4.09,2.2-6,3.31-1.36-1.65-2.44-2.94-3.51-4.23l-1.71.63.94,6.16-7.52-1.85-.32,1.1,2.82,3c-2.3,1.61-4.88,2.52-6,4.33-2.92,5-7.06,5.54-11.91,4.32-2.93-.73-5.77-1.86-10.09-3.29,1.49,1.82,2.11,2.28,2.32,2.89.49,1.46.78,3,1.16,4.48a25.75,25.75,0,0,1-3.75-2.09c-2-1.57-3.79-3.36-5.68-5,4.46,9.24,4.46,9.24-4.78,12.17l-7.86-9.19-2,1.38c1.08,1.88,2.16,3.75,3.26,5.68-2.09,2-4,4.32-6.43,5.87-1.8,1.16-5.24,2.49-6.26,1.66-3.52-2.88-5.62-.74-8.26,1-3.54,2.36-7.17,5.11-12.24,1.41l9.23-1.88L71.38,454.2l3.56,4.27c-3.93,6.37-10.74,6-16.66,7.21-10,2.13-17.23-6.51-14.5-15.4a77.73,77.73,0,0,0,9.25-.15c.68-.09,1.12-2.11,1.68-3.25l-1.09-.64-4.41,2.63c.68-5.42-3.68-11.81,3.73-15.4.92-.44.8-3,1.16-4.64l-1.88-.4c-3.31,4.48-9.14,7.58-7.19,15-5.44-8.6,3.9-14.87,3.06-22.8l3.07,3.75.94-.56c-.92-2-1.84-4.06-2.94-6.51h3.42c.36-1.93.25-4.47,1-4.75,1.52-.59,3.51.05,5.6.21-1.84-5.33.16-8.05,5.5-9.53,4.68-1.3,6.26-8.12,2.53-10-2.62-1.33-6.11-.94-9.21-1.32,3.82-7.65,10.66-12.27,17.52-16.53,19.59-12.17,38.76-25.25,59.36-35.44,14-6.93,30.12-9.64,45.32-14.14,27.68-8.19,56.15-12.46,84.56-17a43.2,43.2,0,0,1,5-.22c15.3-.36,30.61-.46,45.89-1.21a97.73,97.73,0,0,0,18.52-3.15c7.27-1.8,10.79-8.22,8.75-14.82A12.06,12.06,0,0,0,330.56,281c-7.53.4-15.07,2.25-22.55,2-29.58-1.13-58.27,5.78-87.29,9.42-11,1.38-21.64,5.7-32.44,8.68l-22.2,5.51c2.6-5.21,5.47-10.3,7.72-15.65,2.18-5.19,4.39-10.53,5.43-16,2.13-11.29,4.36-22.39,11.08-32.08,8.56-12.34,16.41-25.23,25.66-37,4.62-5.88,10.74-11.73,19.95-9.93.54.1,1.43-1.66,2.16-2.55.44.33.91.64,1.32,1,5.59,4.82,10.27,5.32,14.87,1.59s5.06-9.18,1.62-15.5c-1.12-2-2.38-4.41-2.37-6.63.07-20.85.16-41.71.77-62.55.25-8.72-4.66-14.17-13.32-13.46-7.8.64-10.9,6.44-14.56,12.14-4.75,7.39-9.37,15.16-15.51,21.3-8.18,8.17-17.76,15-26.79,22.28a28.41,28.41,0,0,1-4.37,2.3c-.52-2.43-1.26-4.15-1.2-5.85.16-4.42-.55-9.4,1.24-13.13C186.94,121.89,193,105.88,203,93c15.45-19.88,33.83-37.48,50.87-56.14,6.14-6.72,14-10.36,23.56-14.7-1,5.38-1.51,9.5-2.56,13.48a183,183,0,0,0-6,50.45c.5,27,3.88,53.77,7.79,80.46a80.11,80.11,0,0,0,1.62,9.82c1.48,5.39,6.16,8.57,11.11,8,5.33-.59,9.16-4.85,9.48-10.55.07-1.29.06-2.58.09-3.86.71,2.7,1.43,5.4,2.39,9.07l4.53-3.45c-1.77,8.08,0,13.18,5.53,15.48s9.69.18,14.82-7c2.28-3.19,5.33-5.82,8-8.64,9.47,7.74,11.59,7.51,21.36.76,3.85-2.65,8.52-4.26,13-5.78a7.55,7.55,0,0,1,5.62,1c5.15,3.23,10,2.6,14.3-1,4.73-4,9-8.58,13.45-12.9-.89,2.32-1.79,4.64-2.55,6.6,7.22,1.92,9.47-3.53,12.2-8.58a86.54,86.54,0,0,1,5.2-7.65c-1.5,3.14-2.68,6.49-4.55,9.4-4.69,7.31-5.58,15.07-3.77,23.37,1.67,7.68,9.39,10.74,16,6.28h0c4.64-1.89,4.62-6,5.16-10.11a56.42,56.42,0,0,1,2.86-12.12c1.26-3.42,3.57-6.44,5.3-9.7,7.27-13.67,14.19-27.52,21.85-41,4.57-8,2.51-15.25-6.13-18.59-5.49-2.13-10.15-.41-14.65,2.36s-8.67,6.39-13.41,8.76c-15.42,7.7-32.39,9.65-49.09,12.52-.81.14-1.72-.31-3.87-.75,2-4,3.48-7.66,5.46-11,5.87-9.91,15.75-15.49,24.78-21.71a169.29,169.29,0,0,1,26-14.34c12.4-5.63,25.22-10.33,37.86-15.43l-.17,0c10.37-3.17,20.74-6.36,31.12-9.5,7.43-2.24,14.9-1.35,23.58-1.28-1.55,2.28-2.11,3.19-2.75,4-9,11.9-19.06,23.12-26.73,35.81-18,29.85-28.46,63.1-39.84,95.82-1.15,3.29.19,8.61,2.33,11.6,3.09,4.34,8.35,3.9,13.11,1.68.73,1.46,1.11,3.79,2.24,4.24,15.32,6.16,24.86,19.82,37.86,28.94,3,2.11,6.08,4.11,9.08,6.22,4.47,3.15,6.7,7.49,5.25,12.85-1.5,5.55-6.13,6.88-11.27,6.91s-10.35,0-15.53,0c-.09.64-.17,1.29-.26,1.93l3.84,2.55c-11.18-.7-15.09,9.73-9.8,18.29A107.25,107.25,0,0,1,498.39,297c4.73,13.56,12.58,25,22.22,35.34a4.2,4.2,0,0,1,1.21,3.19c-1.55-.64-3.14-1.2-4.64-2-3.08-1.55-5.95-3.91-9.2-4.69-12.33-3-19.66,4.64-16.35,16.84,4.45,16.41,8.32,33.11,21.3,45.58,1.08,1,1.07,3.23,1.57,4.88a28.91,28.91,0,0,1-4.55,1.22,15.77,15.77,0,0,1-13.19-4.2c-5.08-4.67-10-4.39-15.44,0a21.28,21.28,0,0,0-8.45,16.74q-.28,14.42-.16,28.84c.08,10.17,10,18.36,20.27,18,23.95-.78,48.2-2.7,70.64,8.57,19.69,9.89,37.92,21.8,53.34,38,27.45,28.81,48.72,61.6,65.09,97.74.67,1.5,1.1,3.11,1.65,4.67,2.5,11.48,4.95,23,7.53,34.44,1.14,5.1-.14,7.8-4.53,8-6.05.23-12.12.06-18.17.11-3.15,0-4.62-1.31-4.91-4.58-.56-6.07-.84-12.27-2.42-18.09-2-7.38-5.18-14.43-7.85-21.62-6.05-11.18-12.21-22.3-18.13-33.55-10.72-20.36-25.69-37.31-42.19-53-8-7.61-16-15.28-24.38-22.43-5.78-4.93-13-6.73-20.63-6.69-13.09.05-26.19-.09-39.28.07-3.74,0-6.41-.72-7.62-4.65a15.19,15.19,0,0,0-2.53-4.26c-3.93-5.31-9.45-6.74-14.49-3.83s-6.51,8.41-4,14.46c1.88,4.59,3.58,9.26,5.37,13.89-4.39-.45-8.78-.83-13.15-1.36-20.79-2.52-41.44-2.74-62.23.89-21.38,3.73-42.93,6.75-64.51,9-13.9,1.46-28,1.25-42,1.41q-28,.33-55.94,0a149.52,149.52,0,0,1-23.06-2c-7.12-1.23-13.12-1.63-15.57,6.93-.08.28-.56.46-.85.68,1.33-3.42,3.12-6.75,3.86-10.29,1.11-5.32,2.24-10.85,1.93-16.2-.32-5.61-5.63-9.35-10.77-9.07A11.14,11.14,0,0,0,193,494c-.21,1.65.25,3.62-.51,4.9-1,1.74-3,4.26-4.45,4.21-18-.65-35.67.85-52.82,6.71,1-.78,1.87-2,3-2.26,9.68-2,19.34-4.24,29.13-5.57,6-.81,12.14-.25,18.22-.14,4.15.07,6.3-1.67,6-5.92-.33-5.05,1.79-8.79,5.54-12.05,1.22-1.06,1.47-3.22,2.17-4.88L197,478c-3.31,6.7-6.63,13.4-10,20.2l-1-1.46c-3.3,1.11-5.75,2.52-8.29,2.69-6.79.45-13.73-.35-20.4.69-8.66,1.35-16.9,5.56-26.07,2.93.12,1.49.6,3.25.22,3.46-8.67,4.83-17.43,9.5-26.18,14.2l.63.49-7.49,8.68c2.3-.6,3.83-.6,4.8-1.34,1.89-1.44,3.33-3.45,5.19-5C116.36,517.14,124.48,510.76,135.33,509.75Z"/><path class="cls-1" d="M299,170c0,1.28,0,2.57-.09,3.86-.32,5.7-4.15,10-9.48,10.55-4.95.56-9.63-2.62-11.11-8a80.11,80.11,0,0,1-1.62-9.82c-3.91-26.69-7.29-53.43-7.79-80.46a183,183,0,0,1,6-50.45c1.05-4,1.56-8.1,2.56-13.48-9.53,4.34-17.42,8-23.56,14.7C236.86,55.53,218.48,73.13,203,93c-10,12.87-16.09,28.88-23.25,43.81-1.79,3.73-1.08,8.71-1.24,13.13-.06,1.7.68,3.42,1.2,5.85a28.41,28.41,0,0,0,4.37-2.3c9-7.32,18.61-14.11,26.79-22.28,6.14-6.14,10.76-13.91,15.51-21.3,3.66-5.7,6.76-11.5,14.56-12.14,8.66-.71,13.57,4.74,13.32,13.46-.61,20.84-.7,41.7-.77,62.55,0,2.22,1.25,4.58,2.37,6.63,3.44,6.32,3,11.78-1.62,15.5s-9.28,3.23-14.87-1.59c-.41-.36-.88-.67-1.32-1-7.15-9.89-6.5-21.16-5.9-32.5.31-6,0-12,0-19.31-2.27,1.84-3.59,2.93-4.93,4-11.48,9.27-22.92,18.59-34.48,27.75a34.05,34.05,0,0,1-7.61,4.48c-9.62,4.18-15.91,1.66-21.4-7.19-11.58-18.68-6.81-36.67,1.14-54.94,15.35-35.29,42.88-60.93,68.4-88.3A103.16,103.16,0,0,1,270.28,1.74c14.47-5.94,29.27,4.69,28.39,20.43a66.66,66.66,0,0,1-2.05,14.24c-6.43,22.93-7.7,46.22-5.13,69.76C293.82,127.46,296.48,148.71,299,170Z"/><path class="cls-1" d="M466.67,55.81c-12.64,5.1-25.46,9.8-37.86,15.43a169.29,169.29,0,0,0-26,14.34c-9,6.22-18.91,11.8-24.78,21.71-2,3.35-3.49,7-5.46,11,2.15.44,3.06.89,3.87.75,16.7-2.87,33.67-4.82,49.09-12.52,4.74-2.37,8.86-6,13.41-8.76s9.16-4.49,14.65-2.36c8.64,3.34,10.7,10.55,6.13,18.59-7.66,13.44-14.58,27.29-21.85,41-1.73,3.26-4,6.28-5.3,9.7a56.42,56.42,0,0,0-2.86,12.12c-.54,4.09-.52,8.22-5.16,10.11q2.33-13.29,4.64-26.57c-1.65.24-2.17.72-2.46,1.32-3,6.22-3.91,6.59-10.07,4.28-1.16-.44-2.76-1.23-3.6-.78-5.55,2.94-.79,8.47-2.75,12.53-.4.81,1.45,3.48,2.84,4.24,3.63,2,7.58,3.36,11.41,5-6.64,4.46-14.36,1.4-16-6.28-1.81-8.3-.92-16.06,3.77-23.37,1.87-2.91,3.05-6.26,4.55-9.4l9.33-16.13a94.75,94.75,0,0,0-18.73,3.49c-4.37,1.17-8.7,2.48-13.05,3.73-1.61.15-3.22.26-4.82.47-11.53,1.58-23.19,4.69-33.88-3.07-5.54-9.55-4.78-19.69-1.49-29.44,3.93-11.67,11.94-20.75,21.55-28.26,17.24-13.46,35.44-25.07,56.6-31.82,20.88-6.66,41.09-15.59,62.19-21.36,10.46-2.87,22.45-2.3,33.38-.72C541,26.63,547.14,42.63,540.41,54.4a71.29,71.29,0,0,1-9.56,13.54C514.75,85,503.53,105,495,126.69c-7.48,19.07-14.53,38.3-22,57.38-1.38,3.53-3.8,6.64-5.73,9.94-4.76,2.22-10,2.66-13.11-1.68-2.14-3-3.48-8.31-2.33-11.6,11.38-32.72,21.8-66,39.84-95.82C499.39,72.22,509.48,61,518.45,49.1c.64-.85,1.2-1.76,2.75-4-8.68-.07-16.15-1-23.58,1.28-10.38,3.14-20.75,6.33-31.12,9.5,4.05-2.37,8.23-4.53,12-7.22,1.12-.79,2.14-3.63,1.58-4.59-2.31-3.94-3.86-7.18-10.73-7.13-8.1.05-12.28,2.61-16.61,8.41-2.3,3.07-5.23,7.75-10.69,2.69-2.54-2.37-10.22-.09-10,2.36.47,4.91-1.29,8.86-3.19,13-.24.52.49,1.5,1,2.8,1.78-2.23,2.91-4.21,4.56-5.57,3-2.49,5.92-9.16,10-.61.5,1,4.17.53,6.38.75-.81-1.36-1.64-2.7-2.4-4.08-.15-.27,0-.68,0-.83Zm-67,75.79c2.31,2.17,4.2,3.54,6.44.2.49-.73,1.84-.92,2.83-1.25a60.88,60.88,0,0,0,6.73-2.21c2.15-1,4-2.61,6.08-3.82,3.79-2.24,6.61.21,8.54,2.73.73,1-.78,4-1.71,5.79s-3.29,3.17-3.41,4.85c-.18,2.71,2,5.93,1.17,8.12-.57,1.43-4.77,1.43-7.34,2.07l.23,1.54c3.7-.19,7.43-.21,11.1-.64,3-.35,6.92-.23,8.69-2,3-3,4.68-7.38,6.67-11.3a3.66,3.66,0,0,0-.33-3.28c-2.8-3.48.15-5.24,2-7.27,1.61-1.78,3.84-3.11,5.05-5.09,1.78-2.91,2.88-6.23,4.1-9-.82-2.17-1.66-4.19-2.35-6.27-.86-2.59-1.22-5.45-2.57-7.73-.46-.78-4.27-.86-4.81-.07-1.69,2.51-3.34,5.51-3.58,8.44-.31,3.91-2,6.5-5.5,5.17-6.37-2.38-12,.39-17.62,2.08-1.23.37-1.93,3.48-2.3,5.44-.18,1,.92,2.22,1.57,3.61-4.2,2.3-7.08,2.44-8.53-2.76-.38-1.34-2-3.41-2.91-3.34a122.31,122.31,0,0,0-12.24,2.11c-4.57.86-9.15,1.69-13.7,2.64a9.6,9.6,0,0,0-3.86,1.5c-3.38,2.67-5.08,2.27-5.75-1.84-.81-4.91-2.11-9.91-1.82-14.79.21-3.49,2.5-6.94,4.22-10.23.66-1.26,2.29-2,3.81-3.28-3.27-3.08-5.82-3.68-8.18-.07-1.71,2.62-3,5.56-4.93,8-1.75,2.19-3.82,4.69-6.28,5.61-4.12,1.55-5,3.76-3.83,7.64a15.52,15.52,0,0,1,.55,4.86c-.13,4.9,2.36,7.34,7,7.16,4.1-.15,5.61,1.38,5.55,5.5-.06,4.45,2.31,7.54,7,7.58a89.13,89.13,0,0,0,14.61-.93c5.28-.83,6-2.79,4.32-8-.35-1-.25-3.13.26-3.36a6.67,6.67,0,0,1,4.56-.46c.92.33,1.63,2.15,1.8,3.39C401.13,129.52,400.18,130.53,399.65,131.6Zm89.27-85.12c3.89-.91,7.16-1.79,10.47-2.43,5.87-1.13,11.74-2.35,17.66-3.09,3.67-.45,6.88.59,8,5,1.09,4.09.55,7.49-2.27,10.8-.77.9-.09,3.05-.08,4.62,1.69-.72,3.72-1.09,5-2.28.84-.81.58-2.77.79-4.22.67-4.64,3.79-7,8.48-6.42,1,.12,2,.19,2.94.28l.92-1.26c-2.74-2.75-5.44-5.56-8.25-8.25-2.48-2.37-5.36-4.38-7.59-7-7-8-7.29-8.4-18.26-7.6-4.73.34-8.31,1.84-8.25,8,0,2.86,1.14,8.46-6,6.54C488.74,38.2,487,42.63,488.92,46.48Zm-13.37,77.67a46,46,0,0,0-2.43,4.42c-.88,2-1.11,4.36-2.29,6.1-2.37,3.48-2.54,5.64,2.26,6.57.94.18,1.67,1.46,2.5,2.24a23.74,23.74,0,0,0-3.64,1.27c-1.79.95-5.07,2.49-4.92,3.13.86,3.76,2,7.77,4.23,10.73.91,1.19,5-.05,7.63-.18l-.15-1.16-4.4-2.12,3.91-8c7.22,2.73,5.28-4.37,7.21-7.37s-.72-4.64-2.93-6.58C480.06,131,478.39,127.92,475.55,124.15Zm-20.26,57.38,10,5.54c1.17.64,2.35,1.25,3.53,1.87-.06-1.44.29-3.07-.27-4.29a7.4,7.4,0,0,0-3.08-2.93c-4.23-2.37-4.51-4.32-.25-6.6,2.93-1.58,6.38-2.17,10.81-3.59-6.87-1.1-10.29-4.1-8.73-11.21-2.17,1.22-4.08,2.51-4.92,4.31C459.77,170.33,457.5,176.21,455.29,181.53Zm-26-125.47c-4.93-4.11-8.88-.71-12.94-.09s-5.32,1.73-2.55,5.61c1,1.43.61,4,.55,6a30.5,30.5,0,0,1-.88,4.77c1.66-.41,3.32-.77,5-1.25,1.23-.35,2.72-.53,3.56-1.35s2-2.66,1.76-3.69C421.65,58.25,421.55,58.28,429.34,56.06Zm52.26,49.55c1.89,3.34,3.3,5.06,3.87,7,.63,2.17.48,4.56.72,7.35,1.65-2.72,2.6-5.72,4.65-7.27,2.38-1.79,5.76-2.21,8.62-3.43a4.46,4.46,0,0,0,2.32-2.16c.3-.75-.07-2.52-.59-2.72-3.44-1.35-7-2.41-10.9-3.68.62,1.85,1.28,3.85,1.95,5.87Zm29.15-29.48c-6.26-1.32-9.09,1-10.92,4.65-5,9.88-4.55,13.87,1.64,20.12A47.88,47.88,0,0,0,503,83.53a5.59,5.59,0,0,1,1.73-4C506,78.29,507.79,77.72,510.75,76.13Z"/><path class="cls-1" d="M402,157.48c-4.46,4.32-8.72,8.89-13.45,12.9-4.29,3.64-9.15,4.27-14.3,1a7.55,7.55,0,0,0-5.62-1c-4.48,1.52-9.15,3.13-13,5.78-9.77,6.75-11.89,7-21.36-.76-2.65,2.82-5.7,5.45-8,8.64-5.13,7.18-9.25,9.33-14.82,7s-7.3-7.4-5.53-15.48c10.3-13.55,21.91-25.83,36.47-34.78,3.19-2,8-1.33,12-1.9,1.75,2.07,4.73,4,5,6.25.79,6.16,4,4.57,7.76,3.62,9.4-2.36,18.86-4.45,28.3-6.64C402.49,145.82,403.89,149.12,402,157.48Z"/><path class="cls-4" d="M267.7,807.11l-25.3-16.26-15.79-13.69L210.3,759.31c0-2.07.42-4.23,0-6.19-.81-3.56-2.11-7-3.2-10.49,1,.21,2,.43,3,.62a15.88,15.88,0,0,0,3.4.46c.28,0,.89-1.61.72-1.76a7.81,7.81,0,0,0-2.9-1.77,48.08,48.08,0,0,0-5.37-.88c.74-1.11,1.48-2.22,2.21-3.33.72-2.49,1.43-5,2-7.07l3.94-4.65c-2,.1-4,.18-6,.31-.73,0-1.45.21-2.18.32a39,39,0,0,0-.06-6.21c-.16-1-1.41-1.79-2.16-2.67-.34-1.25-.68-2.5-1-3.74l-1.26,0c-.34,1.25-.69,2.5-1,3.76-1.37-2.5-3.34-4.85-4-7.52-.75-3.28-.37-6.82-.48-10.24,4.12,2.4,5.59.8,5.52-3.53-.11-6.79-2.06-12.45-8.85-15.34l2.22-3.33c2-.43,5.47-.56,5.62-1.34.63-3.28.33-6.75.11-10.14,0-.32-2.5-1-2.64-.73-1.54,2.51-2.84,5.16-4.17,7.8a2.76,2.76,0,0,0,0,1.08c-1.3-2.38-3.12-4.63-3.73-7.18-.57-2.37.34-5.06.28-7.6-.35-15.61-2.64-31.4,6.42-49,.13-.61-1.73.81-1.5,1.64.47,1.64,2.08,3,3.22,4.42.95-1.13,2.62-2.23,2.67-3.4.06-1.41-1.25-2.87-4.39-2.66-1.93.85-2.34-1.14-2-3a42,42,0,0,1,2.33-6.43c4,5,8.64,8,15.59,5.94,1.51-.46,3.72,1.39,5.61,2.18l-.41,1.33-7.74-1.08c4.28,6.19,9.24,1.88,13.95,2.29-.4,1.14-.67,1.78-.85,2.44-.43,1.61-.81,3.24-1.22,4.85,1.53-.78,3-1.67,4.6-2.33,1.33-.56,3.9-1.4,4-1.21,2.27,4.86,5.49,4.94,9.7,2.56.82-.46,2.41.47,3.66.72,7.23,1.45,10.91,10,19.1,9.6.36,0,1,.67,1.11,1.12,1.84,6.82,5.06,4.53,8.71.41,4.64,8.94,12.63,6.74,20.12,6.48-1.56,1.13-3.55,1-4.23,1.81a65,65,0,0,0-4.67,7.77c1.94.95,3.84,2.57,5.83,2.71,4.33.29,8.77-.7,13.05-.21,5.48.62,9.19.29,6.76-7.57,8.62,2.62,14.6,11.15,24.25,6.75a141.6,141.6,0,0,0-15.5-6.75c-3.54-1.39-7.06-2.87-10.58-4.3,15.05,3,30.13,6,45.14,9.18a18.34,18.34,0,0,0,14.69-2.55l2.46,4c9.27-8.8,10.11-9.1,21.25-3.89,3.64,1.7,6.94,1.66,8.67-1.52,1.23-2.28.93-5.82.25-8.53-.39-1.52-2.94-2.49-4.52-3.71.07,1.68.45,3.43.12,5a25.26,25.26,0,0,1-2.13,4.89c-1.13-1.08-2.31-2.1-3.34-3.27a9.63,9.63,0,0,1-1-2.51L379.93,635l20-10,7.17,7.49,1.24-1.2c-.73-1.7-1.45-3.4-2.18-5.11a8.18,8.18,0,0,1,5.58,1.33c1.22.78,2.05,2.21,3.31,2.85.95.48,2.3.18,3.47.22-.26-1.08-.18-2.51-.86-3.17-2.46-2.42-5.17-4.58-7.78-6.85l16.65-8.89c.7,4.87,2.92,4.94,6.28,2.1a36.48,36.48,0,0,1,4.39-2.76,4.2,4.2,0,0,1-.78,3.2c-.52.89-.93,1.84-1.43,2.84,4.49,1.08,6.22-.18,8.09-5.55,1.81-5.18,3.56-5.72,8.24-2.56.67,2.93-5.54,5-1.91,8.27l9.84-9.64-5-3.21c2.66-.94,5-.5,7.39-.31,1.2.1,3.28.07,3.48-.46.42-1.12,0-2.63-.31-3.94a21.08,21.08,0,0,0-1.33-3.18c5.75-2.22,11.2-4.34,16.66-6.41a1.22,1.22,0,0,1,1.05.19c4.06,3.92,7.15,2,10.1-1.54a2.34,2.34,0,0,1,2-.66c4.06,1.09,6-.66,6.27-4.58.29-4.14-.1-8-5.51-8.41l8.77-4.63c-.31,21.8.2,43.65-1.17,65.38-1.26,20-4.57,39.94-6.9,59.91-2.44,20.88-4.79,41.77-7.18,62.65l.09-.16q-4.54,11.1-9.07,22.2L473,788.16l-23.19,25.52-3.83,3.44c-3,1.43-6,2.7-8.88,4.33-12.18,7-24.69,12.25-39.27,11.17-15.42-1.14-30.9-1.4-46.34-2.35-17.48-1.08-35-2.08-51.05-10.48-3.52-1.84-7.63-2.57-11.46-3.81l.12.07Zm196.51-16.77,10.13-10.66c-7.42-.7-10.59,2.22-11.72,10.19-1.51-1.9-2.71-4.89-4.25-5.08-4.64-.56-4.54,1.81-1.73,4.59C458.53,791.25,460.53,793.31,464.21,790.34Zm-88.4,33.83c-.14.63-.27,1.26-.41,1.9,1,.44,2.05,1.23,3.1,1.26q13.11.36,26.24.46c2.37,0,4.9.14,7.06-.63,1-.37,1.34-2.73,2-4.18-1.28-.49-3-1.76-3.77-1.33-9.36,5.16-19.36,2.71-29.14,2.73-1.69,0-3.38-.14,33.93-3.34l5.42,5.89,13-7.14-.19-1C426.61,819.58,420.16,820.38,375.81,824.17ZM345.65,652.91c0-1,0-2,.05-3L365.86,648c-.09-.69-.19-1.37-.28-2.06-4.69,0-9.86,1.26-14-.31-5.69-2.17-9.07.16-12.47,3.46-1.23,1.19-2.53,4.07-1.93,5.06a22.92,22.92,0,0,0,6.59,6.89c.83.57,3.29-1.26,5-2,3.31-1.46,6.6-3,9.94-4.38a18.87,18.87,0,0,1,3.3-.77L361.9,652ZM252.94,793.09c-.6-3.64,2.69-7-1.78-10.19-2.73-1.93-4.69-4.9-7.16-7.23a39.64,39.64,0,0,0-7.42-6c-.71-.4-2.9,1.86-4.41,2.89,1.16,1.34,2.09,3.12,3.55,3.84,1,.5,2.74-.47,4.52-.87-.39,2.09-.74,4-.92,5Zm77.81,21.16-.11-2c-4.66,0-9.33.13-14,0-5.72-.2-6.94,2.66-5.33,7.48.33,1,1.3,2.46,2,2.5a6.08,6.08,0,0,0,3.65-1.42c.85-.63,1.07-2.37,1.92-2.69C322.81,816.63,326.8,815.5,330.75,814.25ZM488.33,683.8l1.58.74c-.62,1.93-.83,4.15-1.94,5.73-1.53,2.2-3.83,3.85-5.63,5.89-.87,1-1.88,2.33-1.83,3.48a3.42,3.42,0,0,0,2.55,2.28c1.14-.13,2.36-1.32,3.17-2.34,1.25-1.58,1.8-3.92,3.31-5,4.56-3.34,2.73-7.62,1.95-11.57-.25-1.23-2.75-3.12-3.75-2.87-1.91.48-3.48,2.29-5.19,3.55.9.76,1.82,2.15,2.71,2.13C486.3,685.77,487.31,684.52,488.33,683.8Zm9.86-44.48c-3.68.09-4.93,2.66-5.19,6.32-.37,5.3-.86,10.6-1.28,15.9-.33,4.19-.63,8.38-1,12.57l2,.18ZM355.47,813c-.12.66-.25,1.32-.37,2,3.33,4.65,8.52,2.85,13.09,2.92,1,0,2-1.16,3-1.79-.83-1-1.61-2.9-2.51-3C364.31,812.82,359.88,813,355.47,813ZM194.1,659.27c6-3.3,5.46-7.31,4.86-11-.2-1.23-2-2.2-3.06-3.29-1,1.11-2.86,2.2-2.88,3.33C193,651.56,193.6,654.88,194.1,659.27Zm143.33,168c.65-2.34,1-3.7,1.37-4.94l7.74-.77c-6.86-4.67-9.63-4.17-18,2.76ZM271.22,804.3l8,2.26c-6.92-9.71-6.92-9.71-13.72-10.25Zm14.3,2.36c3.85,2.73,8,.35,12.07-1.3a6.3,6.3,0,0,0,2.89-2.75c.22-.41-1-2.35-1.65-2.36a9.13,9.13,0,0,0-4.33,1.12C291.55,802.93,288.73,804.74,285.52,806.66Zm84.9,16.5H350.78C355.25,826.52,365.19,826.82,370.42,823.16ZM487.89,704.88c-2.31,1.79-4.27,2.87-5.6,4.48-.89,1.08-.89,2.91-1.28,4.4,1.61-.12,3.33.09,4.8-.43,1.64-.58,3-1.82,5-3.05C489.91,708.63,489,706.94,487.89,704.88ZM410.42,815.19c4.64,4,8.26,1.56,12.14-.61C418.63,810.23,414.58,810.41,410.42,815.19Zm-189-50.14,7.37-8.41-7.37-4.49Zm246.78-8.55c-6.19,8.91,4.92,10.49,6.3,16l1.41-.67C473.46,767,471,762.06,468.21,756.5Zm-206.88,35c3.41-1.08,5.18-1.5,6.82-2.19a46.43,46.43,0,0,0,4.3-2.39c-1-1.18-2-3.23-3.09-3.32a7.22,7.22,0,0,0-4.86,2C263.3,786.68,262.83,788.59,261.33,791.54ZM482.26,666.19c3.68-2,4.46-4.88,3.45-8.31-.23-.78-1.81-1.16-2.77-1.73-.63,2.69-1.33,5.36-1.83,8.07C481,664.73,481.77,665.39,482.26,666.19ZM456.52,803.06l-.77-.64-10.21,2.67,3.15,4.76c1.54-1.44,2.66-2.59,3.87-3.63S455.2,804.11,456.52,803.06Zm26.14-48.59c1.45-2,2.9-3.13,2.85-4.19a3.69,3.69,0,0,0-2.72-2.49c-.91,0-2.42,1.59-2.57,2.64S481.42,752.54,482.66,754.47ZM415.91,618.91c.09.87.18,1.74.26,2.61h6.16c-.16-1.3-.31-2.59-.47-3.89ZM367,652.13l-.6,2.86,5.47,1.43c.22-1.13.44-2.26.65-3.39ZM255.62,775.88l2.5-1.79a35.07,35.07,0,0,0-3.41-4.14c-.21-.2-1.61.86-2.47,1.33ZM427.77,622.25c-1.2,1.28-2.42,2.12-2.85,3.26-.18.47,1.3,1.58,2,2.4l3.27-3.08ZM199.9,628.61l-2.4-.19q.23,3.69.44,7.39l2,0Zm295.6-3.27.49.44V603.09h-.49Z"/><path class="cls-4" d="M761.39,599.65c-4,13.44-7.8,26.93-12,40.29-1.92,6.08-4.67,11.91-7.56,19.14-5.57-10.4-14.18-11.63-23.21-11.77-2.71,0-4.15-.83-4.06-3.79.7-23.07-8.74-43.28-18.45-63.23-13.46-27.68-29.29-54-50.21-76.75C633,489.61,618.76,477,604.7,464.21c-4.14-3.75-9.79-5.83-14.74-8.68-2.33-1.34-3.5-2.72-2-5.75,13.27-26.21,26.13-52.63,39.59-78.73,13.07-25.32,35.51-35.44,62.27-31.57,20.41,2.95,39.75,11.85,53.17,29.17,5.61,7.23,10.08,15.33,15.07,23l-.35.33-4.61,2.76c2,1.4,4.3,2.07,4.79,3.4,3.48,9.46,7.3,18.89,9.63,28.66,2,8.49,2.53,17.4,3.17,26.17.75,10.29,1.22,20.62,1.27,30.94.06,11.44-1.66,23-.52,34.28,1.64,16.31-2.66,31.69-4.81,47.42a9.71,9.71,0,0,1-.44,1.6c-1.75,5.16-4.18,10.19-5.1,15.48-1.65,9.54-2.7,19.15-7.46,27.84a11.45,11.45,0,0,0-.72,2.66c-1.92,7.61-3.06,15.56-6.06,22.72-1.88,4.5-.8,11.2-7.34,13.39a35.22,35.22,0,0,0,1,4.56l2.31-.11c3.23-9.18,6.58-18.33,9.68-27.55,3-8.89,5.73-17.87,8.58-26.81Z"/><path class="cls-4" d="M592.74,772.65c.89-3.08-.12-5.4-3.44-5.07-4.91.49-9.75,1.73-14.62,2.65,3.88-5.38,8.09-10.56,11.56-16.2,5.58-9.1,11.21-18.25,15.8-27.86,3.65-7.63-.87-15-8.41-15.74-5.06-.47-9,2.38-11.72,8.32-8.87,19.35-22,35.77-35.65,51.82-1.11-.66-2.15-1.71-3.34-1.91-2.67-.44-5.4-.45-8.11-.64,7.18-10.93,14.57-21.72,21.43-32.84a10.58,10.58,0,0,0-3.5-15c-4.6-2.81-10.86-1.36-14.46,3.93-4.15,6.1-7.54,12.71-11.8,18.72s-9.22,11.62-13.87,17.39l-1.56-1c.82-8.47,1.41-17,2.52-25.41,2.6-19.77,5.94-39.45,8.07-59.26,2-18.7,3.73-37.51,4-56.29.34-23.58,2-47.29-2.46-70.75-.87-4.61,3.19-6.14,6.18-8.16-2.59,3.69-5.29,6.82-4.34,12.33a186.08,186.08,0,0,1,2.23,27.53c.33,16.08.55,32.19,0,48.25-.54,14.55-1.84,29.1-3.5,43.56-2.22,19.4-5.14,38.71-7.67,58.08-.21,1.62.3,3.34.48,5l2.17-.1c0-4.26-.44-8.57.1-12.76.89-6.9,2.63-13.69,3.6-20.58,1.2-8.5,1.67-17.11,3-25.59,3-19.29,5.4-38.61,5.29-58.19-.09-14.6.26-29.22-.14-43.82-.2-7.11-.76-14.46-2.82-21.19-1.86-6.1.7-8.35,5-11a27.53,27.53,0,0,0,6.56-6.33c5-6.23,9.71-12.65,15.11-19.76,6.57,6.25,12.09,11.63,17.78,16.81,1.26,1.15,2.39,4.68,5,1.32C587.28,544,599,554.11,607.05,566.57c11.24,17.41,20.13,36.4,29.2,55.12a38.65,38.65,0,0,1,2.62,27.55c-.53,1.89-.31,4-.47,6.46-2.46.41-4.94.8-7.42,1.26a16.81,16.81,0,0,0-13.86,16.26c-.11,4.43-.5,8.94.19,13.27.65,4.07,1.46,9.09,4.15,11.64,5,4.71,4.38,9.52,3,14.89C618.74,735.48,610.1,756.4,592.74,772.65Z"/><path class="cls-2" d="M426.49,611.64l-16.65,8.89L399.89,625l-20,10-12.18,6.63a18.34,18.34,0,0,1-14.69,2.55C338.05,641,323,638,307.92,635c-10.55-3.76-21.07-7.61-31.65-11.25-14.76-5.08-29.62-9.87-44.34-15.05-10.21-3.58-20.26-7.61-30.38-11.44l-11-5.69c.51-5.31.82-10.66,1.64-15.93.27-1.79,1.83-3.37,2.79-5a144.51,144.51,0,0,0,37.09,12.3c9.67,1.9,18.82,6.32,28.35,9.08,10.95,3.18,22.17,5.39,33.06,8.7,14.27,4.34,28.36,9.26,42.45,14.14A49.23,49.23,0,0,1,346.84,620c5.07,3.32,10.56,4.17,15.85,2.13,15.95-6.14,32-12.16,47.42-19.51,16.59-7.91,32.5-17.28,48.72-26q19.17-10.3,38.37-20.58c2.8-.58,4.56-.05,4.64,3.39.09,3.65.63,7.29,1,10.93L494,575a24.76,24.76,0,0,0-2.54,1.07Q459,593.84,426.49,611.64Z"/><path class="cls-2" d="M208.13,519.54c.29-.22.77-.4.85-.68,2.45-8.56,8.45-8.16,15.57-6.93a149.52,149.52,0,0,0,23.06,2q28,.4,55.94,0c14-.16,28.1.05,42-1.41,21.58-2.28,43.13-5.3,64.51-9,20.79-3.63,41.44-3.41,62.23-.89,4.37.53,8.76.91,13.15,1.36L492,518.72c-7.39.6-13.54,1.52-19.69,1.53-26.66.06-53,4.07-79.39,6.7-22.16,2.21-44.55,2.32-66.85,2.78-21.05.43-42.11-.11-63.15.16-17.71.23-35.4,1-53.1,1.56-1.78,0-3.56,0-6.76,0Z"/><path class="cls-5" d="M58,391.89c3.1.38,6.59,0,9.21,1.32,3.73,1.9,2.15,8.72-2.53,10-5.34,1.48-7.34,4.2-5.5,9.53-2.09-.16-4.08-.8-5.6-.21-.75.28-.64,2.82-1,4.75H49.16c1.1,2.45,2,4.48,2.94,6.51l-.94.56-3.07-3.75c.84,7.93-8.5,14.2-3.06,22.8-2-7.41,3.88-10.51,7.19-15l1.88.4c-.36,1.6-.24,4.2-1.16,4.64-7.41,3.59-3,10-3.73,15.4l4.41-2.63,1.09.64c-.56,1.14-1,3.16-1.68,3.25a77.73,77.73,0,0,1-9.25.15c-2.73,8.89,4.5,17.53,14.5,15.4,5.92-1.25,12.73-.84,16.66-7.21l-3.56-4.27,16.41,4.26-9.23,1.88c5.07,3.7,8.7,1,12.24-1.41,2.64-1.75,4.74-3.89,8.26-1,1,.83,4.46-.5,6.26-1.66,2.42-1.55,4.34-3.89,6.43-5.87-1.1-1.93-2.18-3.8-3.26-5.68l2-1.38,7.86,9.19c9.24-2.93,9.24-2.93,4.78-12.17,1.89,1.69,3.7,3.48,5.68,5a25.75,25.75,0,0,0,3.75,2.09c-.38-1.5-.67-3-1.16-4.48-.21-.61-.83-1.07-2.32-2.89,4.32,1.43,7.16,2.56,10.09,3.29,4.85,1.22,9,.63,11.91-4.32,1.07-1.81,3.65-2.72,6-4.33l-2.82-3,.32-1.1,7.52,1.85-.94-6.16,1.71-.63c1.07,1.29,2.15,2.58,3.51,4.23,1.94-1.11,3.86-2.58,6-3.31,1.48-.5,3.31,0,5,.1-1,1.39-1.94,2.8-3,4.16a17.48,17.48,0,0,1-1.94,1.74L184,431.24l.87-4.79c1.71.86,2.94,1.53,4.21,2.1,3.69,1.64,6.83,1.6,10.86-.43,6-3.05,12.91-4.45,20.34-6.85l-10.94-7.36,10.25-2.19c-1.46,5.81,1.73,8.49,7.23,10.29l1.35-5-4-3.46c1.45-.88,2.84-2.41,4.35-2.53,4.3-.35,8.65-.12,14.48-.12l-5.36,7.28c2.68-1.21,4.05-1.53,5-2.32,3.39-2.73,6.44-6.24,11.25-2.21.54.46,3-.15,3.34-.87,2.75-5.47,6.94-5.23,11.74-3.5a6.5,6.5,0,0,0,2.36,0c-.94-3.55-1.82-6.87-2.66-10.06l11.83-.79.51,1.26-7.35,4.8c2.44.69,3.83,1.41,5.21,1.4a61.87,61.87,0,0,0,8-.79c.83-.11,2.25-.62,2.3-1.07.63-6.2,5.17-5.15,9.21-5.21a31.93,31.93,0,0,0,4.78-.87c-.76,2.19-1.25,3.63-1.91,5.53,4.07-.88,8.8.2,9.07-6.72,3.29,3.86,6.35,2.39,10.17,2.16,9.05-.54,18.57-1.72,27.53,2.63,5.49,2.68,8.86,7.15,12,11.77,2,3,2.14,6.87-2.47,8.6-2.79,1-4.5,2.21-4.29,5.95.1,1.67-2.94,4.44-5.07,5.14a146.58,146.58,0,0,1-18,4.36c-2.94.57-5.92.2-6.54,4.39-.13.92-2.43,1.52-4.17,2.52v-9.36a1.7,1.7,0,0,0,1.07-.4c1.08-1,2-2.08,3-3.14-1.39-.36-3.1-1.41-4.12-.95-5.8,2.68-11.43,5.73-17.13,8.62-1.29.66-2.63,1.23-4.33,2l-1.56-3.58L282,440.92c-1.55-1.82-4-3.59-5.81,1.29-.26.68-2.32,1.48-2.67,1.19-3.86-3.27-5.93.25-9,1.68-6.09,2.87-12.6,4.92-20.63,3.58-3.35.59-.06,9.2-6.88,7.64-1.58-7.54-8.41-3.94-12.83-5.62a4.8,4.8,0,0,1,2.2-1.2l39.08-10.12c22.82-5.94,45.59-12.08,69.47-12a53.61,53.61,0,0,0,10.4-1.16,10.78,10.78,0,0,0,9.1-10.91c.09-6-3.08-10.71-8.61-12A39.69,39.69,0,0,0,335.43,402c-23.31.67-46,5.43-68.48,11.22-24.07,6.19-48.18,12.26-72.14,18.86-20.76,5.72-41.69,11.15-61.88,18.51-17.06,6.23-34.14,11.71-52.08,14.13-11.07,1.5-22.3,1.86-33.46,2.73L43,462.25c-4.58-16.77-3.67-32.93,5.1-48.32,1-1.68,1.05-3.84,1.55-5.78Zm270.5,38.5c0,.49,0,1-.05,1.46h9.37l.05-1.46ZM61.59,396.24l-1.42-.67q-3.27,5.64-6.55,11.27l1.62.91Z"/><path class="cls-2" d="M687.62,699.1c1.65-.17,3.31-.27,4.94-.52,3.74-.56,6.26.13,8.54,4,3.14,5.29,7.94,9.57,11.5,14.66a11,11,0,0,1-.86,14.34c-14.09,15.66-31,25.35-52.86,23-2-.21-4-2.36-5.4-4.09-6.53-8-5.84-17.48-4.73-26.93.41-3.47,1.51-7,1.16-10.4-.67-6.48,1.4-9.71,8.18-10.45,9.84-1.09,19.61-2.88,29.42-4.37Z"/><path class="cls-2" d="M39,723.93c-4.05,0-8.11,0-12.17,0-3.13,0-4.5-1.46-3.81-4.5,1.9-8.26,3.79-16.52,6-24.71a5.07,5.07,0,0,1,3.37-2.86c13-2.59,26.08-4.74,39-7.52,4.43-1,5.94.69,6.08,4.44.23,5.71,1.16,11.68-.1,17.1-1.82,7.84-8.18,12.85-15.54,15.09s-15.08,2.74-22.64,4Z"/><path class="cls-6" d="M47.39,467.44c11.16-.87,22.39-1.23,33.46-2.73,17.94-2.42,35-7.9,52.08-14.13,20.19-7.36,41.12-12.79,61.88-18.51,24-6.6,48.07-12.67,72.14-18.86,22.49-5.79,45.17-10.55,68.48-11.22a39.69,39.69,0,0,1,10.38,1.29c5.53,1.33,8.7,6.06,8.61,12a10.78,10.78,0,0,1-9.1,10.91,53.61,53.61,0,0,1-10.4,1.16c-23.88-.11-46.65,6-69.47,12l-39.08,10.12a4.8,4.8,0,0,0-2.2,1.2c4.42,1.68,11.25-1.92,12.83,5.62l-17.49-4.84c.22,1.07.42,2.08.63,3.08,2,9.59-2.94,16-12.71,16.15-10.51.14-21,.06-31.54,0-17-.05-32.87,3.79-47.51,12.54a32.19,32.19,0,0,1-4.58,1.84c13.83-10.71,29.89-15,47-15.64,10.87-.44,21.78,0,32.68-.08,14.13,0,18.08-5.26,13.72-18.95,2.95-.85,5.87-1.76,8.83-2.53,17.85-4.66,35.64-9.59,53.58-13.84,20.1-4.77,40.28-9.16,61.19-8.79,3.48.06,8.24-2.07,10.29-4.78,5.28-7,.22-16.08-9-16.34a159.27,159.27,0,0,0-25.94,1,459.07,459.07,0,0,0-70.7,15.76c-17.48,5.26-35.56,8.45-53.11,13.51-23.19,6.68-46.35,13.64-69.11,21.65-22.55,7.94-45.84,11.07-69.35,13.42C51.81,469.72,49.56,468.17,47.39,467.44Z"/><path class="cls-7" d="M577.2,532.88c-2.63,3.36-3.76-.17-5-1.32C566.49,526.38,561,521,554.4,514.75c-5.4,7.11-10.14,13.53-15.11,19.76a27.53,27.53,0,0,1-6.56,6.33c-4.31,2.67-6.87,4.92-5,11,2.06,6.73,2.62,14.08,2.82,21.19.4,14.6.05,29.22.14,43.82.11,19.58-2.25,38.9-5.29,58.19-1.34,8.48-1.81,17.09-3,25.59-1,6.89-2.71,13.68-3.6,20.58-.54,4.19-.1,8.5-.1,12.76l-2.17.1c-.18-1.67-.69-3.39-.48-5,2.53-19.37,5.45-38.68,7.67-58.08,1.66-14.46,3-29,3.5-43.56.6-16.06.38-32.17,0-48.25A186.08,186.08,0,0,0,525,551.66c-.95-5.51,1.75-8.64,4.34-12.33l-.05.06c7-2.65,10.23-8.71,13.4-14.82l3-4c1.57-1.24,3.57-2.19,4.64-3.77,2.29-3.39,4.39-3.82,7.52-1,2.16,1.92,4.81,3.29,7.24,4.9Z"/><path class="cls-8" d="M190.54,591.55l11,5.69-8.61-2.45c-.32,2.66-.59,4.88-1,8.56l5.19-3.88a42,42,0,0,0-2.33,6.43c-.36,1.85,0,3.84.12,5.77-7.2,14.86-4.91,30.65-4.56,46.26.06,2.54-.85,5.23-.28,7.6.61,2.55,2.43,4.8,3.73,7.18l1.11,3.33-2.22,3.33L196,698.24c.11,3.42-.27,7,.48,10.24.61,2.67,2.58,5,4,7.52-1.19,3.06-1.8,6,1.06,9l2.26-9c.75.88,2,1.69,2.16,2.67a39,39,0,0,1,.06,6.21,52.88,52.88,0,0,1-1,5.19,45,45,0,0,1-1.95,4.66l5.18,1.24c-.73,1.11-1.47,2.22-2.21,3.33l1.11,3.33c1.09,3.49,2.39,6.93,3.2,10.49.44,2,0,4.12,0,6.19-.75-1.35-1.5-2.69-2.24-4l-9-22.61.11.19c-.4-2.35-.63-4.73-1.21-7-6.27-24.9-11.72-50-10.75-75.83C187.94,630.5,189.41,611,190.54,591.55Z"/><path class="cls-9" d="M718.25,671.26c-2.74,1.62-5.34,4.24-8.25,4.65-7.27,1-14.71.67-22,1.51-12,1.39-24,3.34-36,4.92a64.14,64.14,0,0,1-10.46.49c-1.07,0-2.09-1.47-3.14-2.27,1-1,1.87-2.59,3.07-2.91,19.8-5.38,39.87-8.37,60.49-7.32,5,.25,10.08-1.05,15.13-1.64C717.46,669.54,717.85,670.4,718.25,671.26Z"/><path class="cls-10" d="M31.88,658.18c12.19-.82,24.38-1.71,36.57-2.41,1.41-.08,2.87.89,4.3,1.38-.74,1.4-1.22,3.08-2.3,4.13a9.15,9.15,0,0,1-4.31,2.3c-11.2,2.3-22.39,4.74-33.68,6.53-7.5,1.19-10.21-1.3-9.73-7.36S27.91,657.62,31.88,658.18Z"/><path class="cls-11" d="M188.28,301.08c10.8-3,21.43-7.3,32.44-8.68,29-3.64,57.71-10.55,87.29-9.42,7.48.29,15-1.56,22.55-2a12.06,12.06,0,0,1,12.33,8.39c2,6.6-1.48,13-8.75,14.82a97.73,97.73,0,0,1-18.52,3.15c-15.28.75-30.59.85-45.89,1.21,9.33-.76,18.68-1.49,28-2.29,11.72-1,23.47-1.8,35.15-3.19,4.68-.56,8.68-3.79,8.64-8.71a16.59,16.59,0,0,0-4.19-10c-1.57-1.76-5.38-2.27-8.12-2.13-13.23.66-26.44,1.58-39.64,2.68-10.64.89-21.31,1.73-31.85,3.38-22.54,3.52-45.36,5.65-67.27,12.6A9.32,9.32,0,0,1,188.28,301.08Z"/><path class="cls-4" d="M758.09,391.69c7.62,11.63,11.59,24.69,13.83,38.19,5.93,35.74,5.45,71.89,2.77,107.71-1.56,20.9-8.68,41.39-13.3,62.06l-.31-.22c1.85-8.44,3.82-16.87,5.52-25.34,2.36-11.71,5.8-23.39,6.48-35.21,1.31-22.81,1.34-45.7,1.21-68.56,0-10.64-1.76-21.27-2.62-31.91C770.33,421.94,764,407,757.74,392Z"/><path class="cls-4" d="M502.81,570.4c-.34-3.64-.88-7.28-1-10.93-.08-3.44-1.84-4-4.64-3.39l4.92-4c.82,5.92,2.06,10.54,2,15.15-.49,30.11-.36,60.29-2.25,90.32-1.27,20.22-5.69,40.23-8.38,60.38-1.35,10.06-1.8,20.25-3,30.33-.4,3.42-1.91,6.7-2.91,10,2.39-20.88,4.74-41.77,7.18-62.65,2.33-20,5.64-39.87,6.9-59.91C503,614.05,502.5,592.2,502.81,570.4Z"/><path class="cls-4" d="M190.54,591.55c-1.13,19.48-2.6,39-3.33,58.44-1,25.87,4.48,50.93,10.75,75.83.58,2.3.81,4.68,1.21,7-3.58-15-7.71-29.92-10.61-45.07-6-31.21-2.63-62.53.12-93.79.63-7.16,1.68-14.28,2.62-21.41.28-2.14.47-5,3.67-2-1,1.68-2.52,3.26-2.79,5C191.36,580.89,191.05,586.24,190.54,591.55Z"/><path class="cls-6" d="M55.15,562.45c-1.54,11.12-3.1,22.24-4.6,33.36-1.52,11.3-2.91,22.62-4.5,33.91-.43,3,.59,4.19,3.54,3.82,2-.26,4-.71,6-.77,3.38-.1,4.58-1.84,5.34-5,3.55-14.85,7.38-29.64,11.22-44.43.35-1.35,1.43-2.5,2.18-3.75-2.35,8.34-4.91,16.63-7,25-2,8.24-3.63,16.58-5.16,24.92-.56,3-1.68,4.5-4.93,4.65-4.35.2-8.67.92-13.44,1.46.07-1.33.07-2.37.19-3.4,1.88-15.37,3.5-30.78,5.77-46.1C51,578.14,53.33,570.33,55.15,562.45Z"/><path class="cls-12" d="M653.35,604c2.67,7.19,5.85,14.24,7.85,21.62,1.58,5.82,1.86,12,2.42,18.09.29,3.27,1.76,4.61,4.91,4.58,6.05,0,12.12.12,18.17-.11,4.39-.16,5.67-2.86,4.53-8-2.58-11.47-5-23-7.53-34.44,5.65,11.54,9.11,23.64,9.45,36.56.13,4.61-1.16,7.11-6.56,6.94-6.59-.21-13.21.48-19.8,1-2.57.18-4.36-.07-4.43-3.23C662,632.1,658.3,617.91,653.35,604Z"/><path class="cls-13" d="M525.63,511.5l-9.89,10.75c-1.9-4.45-3.32-7.78-5.15-12.05h14.15Z"/><path class="cls-4" d="M49.6,408.15c-.5,1.94-.6,4.1-1.55,5.78-8.77,15.39-9.68,31.55-5.1,48.32-1.41-4.07-3.7-8.06-4.07-12.23C37.51,434.9,40.79,420.76,49.6,408.15Z"/><path class="cls-4" d="M449.76,813.68,473,788.16Z"/><path class="cls-4" d="M565.08,520.67c-2.43-1.61-5.08-3-7.24-4.9-3.13-2.78-5.23-2.35-7.52,1-1.07,1.58-3.07,2.53-4.64,3.77,8.84-10.87,5.36-13.14,18.24-1.71A8.06,8.06,0,0,1,565.08,520.67Z"/><path class="cls-4" d="M478.58,780.38q4.53-11.1,9.07-22.2Q483.11,769.28,478.58,780.38Z"/><path class="cls-4" d="M542.71,524.57c-3.17,6.11-6.41,12.17-13.4,14.82Z"/><path class="cls-4" d="M199.06,732.66l9,22.61Z"/><path class="cls-4" d="M226.61,777.16l15.79,13.69Z"/><path class="cls-1" d="M546.26,770.57c13.65-16.05,26.78-32.47,35.65-51.82,2.72-5.94,6.66-8.79,11.72-8.32,7.54.7,12.06,8.11,8.41,15.74-4.59,9.61-10.22,18.76-15.8,27.86-3.47,5.64-7.68,10.82-11.56,16.2-5.25,6.11-10.13,12.63-15.94,18.15a15.9,15.9,0,0,1-10.7,4c-7.61-.49-11-9.57-6.59-15.89C542.92,774.44,544.65,772.55,546.26,770.57Z"/><path class="cls-10" d="M395.47,142.15l-1.1-3.21c4.35-1.25,8.68-2.56,13.05-3.73a94.75,94.75,0,0,1,18.73-3.49l-9.33,16.13a86.54,86.54,0,0,0-5.2,7.65c-2.73,5.05-5,10.5-12.2,8.58.76-2,1.66-4.28,2.55-6.6C403.89,149.12,402.49,145.82,395.47,142.15Z"/><path class="cls-8" d="M135.33,509.75c-10.85,1-19,7.39-27,13.88-1.86,1.5-3.3,3.51-5.19,5-1,.74-2.5.74-4.8,1.34l7.49-8.68-.63-.49c8.75-4.7,17.51-9.37,26.18-14.2.38-.21-.1-2-.22-3.46,9.17,2.63,17.41-1.58,26.07-2.93,6.67-1,13.61-.24,20.4-.69,2.54-.17,5-1.58,8.29-2.69l1,1.46c3.37-6.8,6.69-13.5,10-20.2l2.29.92c-.7,1.66-1,3.82-2.17,4.88-3.75,3.26-5.87,7-5.54,12.05.28,4.25-1.87,6-6,5.92-6.08-.11-12.25-.67-18.22.14-9.79,1.33-19.45,3.56-29.13,5.57-1.09.23-2,1.48-3,2.26Z"/><path class="cls-1" d="M399.65,131.6c.53-1.07,1.48-2.08,1.36-2.94-.17-1.24-.88-3.06-1.8-3.39a6.67,6.67,0,0,0-4.56.46c-.51.23-.61,2.33-.26,3.36,1.7,5.17,1,7.13-4.32,8a89.13,89.13,0,0,1-14.61.93c-4.7,0-7.07-3.13-7-7.58.06-4.12-1.45-5.65-5.55-5.5-4.68.18-7.17-2.26-7-7.16a15.52,15.52,0,0,0-.55-4.86c-1.19-3.88-.29-6.09,3.83-7.64,2.46-.92,4.53-3.42,6.28-5.61,1.93-2.43,3.22-5.37,4.93-8,2.36-3.61,4.91-3,8.18.07-1.52,1.26-3.15,2-3.81,3.28-1.72,3.29-4,6.74-4.22,10.23-.29,4.88,1,9.88,1.82,14.79.67,4.11,2.37,4.51,5.75,1.84a9.6,9.6,0,0,1,3.86-1.5c4.55-.95,9.13-1.78,13.7-2.64a122.31,122.31,0,0,1,12.24-2.11c.9-.07,2.53,2,2.91,3.34,1.45,5.2,4.33,5.06,8.53,2.76-.65-1.39-1.75-2.62-1.57-3.61.37-2,1.07-5.07,2.3-5.44,5.67-1.69,11.25-4.46,17.62-2.08,3.55,1.33,5.19-1.26,5.5-5.17.24-2.93,1.89-5.93,3.58-8.44.54-.79,4.35-.71,4.81.07,1.35,2.28,1.71,5.14,2.57,7.73.69,2.08,1.53,4.1,2.35,6.27-1.22,2.74-2.32,6.06-4.1,9-1.21,2-3.44,3.31-5.05,5.09-1.83,2-4.78,3.79-2,7.27a3.66,3.66,0,0,1,.33,3.28c-2,3.92-3.69,8.26-6.67,11.3-1.77,1.81-5.69,1.69-8.69,2-3.67.43-7.4.45-11.1.64l-.23-1.54c2.57-.64,6.77-.64,7.34-2.07.86-2.19-1.35-5.41-1.17-8.12.12-1.68,2.51-3.08,3.41-4.85s2.44-4.83,1.71-5.79c-1.93-2.52-4.75-5-8.54-2.73-2.06,1.21-3.93,2.81-6.08,3.82a60.88,60.88,0,0,1-6.73,2.21c-1,.33-2.34.52-2.83,1.25C403.85,135.14,402,133.77,399.65,131.6Z"/><path class="cls-1" d="M488.92,46.48c-1.92-3.85-.18-8.28,3.54-7.29,7.16,1.92,6.05-3.68,6-6.54-.06-6.16,3.52-7.66,8.25-8,11-.8,11.3-.45,18.26,7.6,2.23,2.57,5.11,4.58,7.59,7,2.81,2.69,5.51,5.5,8.25,8.25l-.92,1.26c-1-.09-2-.16-2.94-.28-4.69-.58-7.81,1.78-8.48,6.42-.21,1.45,0,3.41-.79,4.22-1.24,1.19-3.27,1.56-5,2.28,0-1.57-.69-3.72.08-4.62,2.82-3.31,3.36-6.71,2.27-10.8-1.16-4.38-4.37-5.42-8-5-5.92.74-11.79,2-17.66,3.09C496.08,44.69,492.81,45.57,488.92,46.48Z"/><path class="cls-1" d="M466.67,55.81H448.39c0,.15-.12.56,0,.83.76,1.38,1.59,2.72,2.4,4.08-2.21-.22-5.88.28-6.38-.75-4.07-8.55-7-1.88-10,.61-1.65,1.36-2.78,3.34-4.56,5.57-.49-1.3-1.22-2.28-1-2.8,1.9-4.13,3.66-8.08,3.19-13-.23-2.45,7.45-4.73,10-2.36,5.46,5.06,8.39.38,10.69-2.69,4.33-5.8,8.51-8.36,16.61-8.41,6.87,0,8.42,3.19,10.73,7.13.56,1-.46,3.8-1.58,4.59-3.81,2.69-8,4.85-12,7.22Z"/><path class="cls-1" d="M475.55,124.15c2.84,3.77,4.51,6.84,7,9,2.21,1.94,4.94,3.45,2.93,6.58s0,10.1-7.21,7.37l-3.91,8,4.4,2.12.15,1.16c-2.64.13-6.72,1.37-7.63.18-2.27-3-3.37-7-4.23-10.73-.15-.64,3.13-2.18,4.92-3.13a23.74,23.74,0,0,1,3.64-1.27c-.83-.78-1.56-2.06-2.5-2.24-4.8-.93-4.63-3.09-2.26-6.57,1.18-1.74,1.41-4.11,2.29-6.1A46,46,0,0,1,475.55,124.15Z"/><path class="cls-1" d="M424.53,186.9c-3.83-1.63-7.78-3-11.41-5-1.39-.76-3.24-3.43-2.84-4.24,2-4.06-2.8-9.59,2.75-12.53.84-.45,2.44.34,3.6.78,6.16,2.31,7.07,1.94,10.07-4.28.29-.6.81-1.08,2.46-1.32q-2.32,13.27-4.64,26.57Z"/><path class="cls-1" d="M455.29,181.53c2.21-5.32,4.48-11.2,7.14-16.9.84-1.8,2.75-3.09,4.92-4.31-1.56,7.11,1.86,10.11,8.73,11.21-4.43,1.42-7.88,2-10.81,3.59-4.26,2.28-4,4.23.25,6.6a7.4,7.4,0,0,1,3.08,2.93c.56,1.22.21,2.85.27,4.29-1.18-.62-2.36-1.23-3.53-1.87Z"/><path class="cls-1" d="M429.34,56.06c-7.79,2.22-7.69,2.19-5.54,10,.28,1-.82,2.78-1.76,3.69s-2.33,1-3.56,1.35c-1.64.48-3.3.84-5,1.25a30.5,30.5,0,0,0,.88-4.77c.06-2,.47-4.62-.55-6-2.77-3.88-1.53-5,2.55-5.61S424.41,52,429.34,56.06Z"/><path class="cls-1" d="M481.6,105.61l10.64,1c-.67-2-1.33-4-1.95-5.87,3.91,1.27,7.46,2.33,10.9,3.68.52.2.89,2,.59,2.72a4.46,4.46,0,0,1-2.32,2.16c-2.86,1.22-6.24,1.64-8.62,3.43-2,1.55-3,4.55-4.65,7.27-.24-2.79-.09-5.18-.72-7.35C484.9,110.67,483.49,109,481.6,105.61Z"/><path class="cls-1" d="M510.75,76.13c-3,1.59-4.79,2.16-6,3.35a5.59,5.59,0,0,0-1.73,4,47.88,47.88,0,0,1-1.53,17.37c-6.19-6.25-6.6-10.24-1.64-20.12C501.66,77.13,504.49,74.81,510.75,76.13Z"/><path class="cls-4" d="M197.1,599.47l-5.19,3.88c.44-3.68.71-5.9,1-8.56l8.61,2.45c10.12,3.83,20.17,7.86,30.38,11.44,14.72,5.18,29.58,10,44.34,15.05,10.58,3.64,21.1,7.49,31.65,11.25,3.52,1.43,7,2.91,10.58,4.3A141.6,141.6,0,0,1,334,646c-9.65,4.4-15.63-4.13-24.25-6.75,2.43,7.86-1.28,8.19-6.76,7.57-4.28-.49-8.72.5-13.05.21-2-.14-3.89-1.76-5.83-2.71a65,65,0,0,1,4.67-7.77c.68-.86,2.67-.68,4.23-1.81-7.49.26-15.48,2.46-20.12-6.48-3.65,4.12-6.87,6.41-8.71-.41-.13-.45-.75-1.14-1.11-1.12-8.19.41-11.87-8.15-19.1-9.6-1.25-.25-2.84-1.18-3.66-.72-4.21,2.38-7.43,2.3-9.7-2.56-.08-.19-2.65.65-4,1.21-1.58.66-3.07,1.55-4.6,2.33.41-1.61.79-3.24,1.22-4.85.18-.66.45-1.3.85-2.44-4.71-.41-9.67,3.9-13.95-2.29l7.74,1.08.41-1.33c-1.89-.79-4.1-2.64-5.61-2.18C205.74,607.52,201.14,604.48,197.1,599.47Z"/><path class="cls-4" d="M426.49,611.64q32.5-17.77,65-35.54A24.76,24.76,0,0,1,494,575c5.41.45,5.8,4.27,5.51,8.41-.26,3.92-2.21,5.67-6.27,4.58a2.34,2.34,0,0,0-2,.66c-3,3.56-6,5.46-10.1,1.54a1.22,1.22,0,0,0-1.05-.19c-5.46,2.07-10.91,4.19-16.66,6.41a21.08,21.08,0,0,1,1.33,3.18c.27,1.31.73,2.82.31,3.94-.2.53-2.28.56-3.48.46-2.37-.19-4.73-.63-7.39.31l5,3.21-9.84,9.64c-3.63-3.32,2.58-5.34,1.91-8.27-4.68-3.16-6.43-2.62-8.24,2.56-1.87,5.37-3.6,6.63-8.09,5.55.5-1,.91-1.95,1.43-2.84a4.2,4.2,0,0,0,.78-3.2,36.48,36.48,0,0,0-4.39,2.76C429.41,616.58,427.19,616.51,426.49,611.64Z"/><path class="cls-4" d="M345.65,652.91l16.25-.9.15,1.85a18.87,18.87,0,0,0-3.3.77c-3.34,1.39-6.63,2.92-9.94,4.38-1.71.76-4.17,2.59-5,2a22.92,22.92,0,0,1-6.59-6.89c-.6-1,.7-3.87,1.93-5.06,3.4-3.3,6.78-5.63,12.47-3.46,4.1,1.57,9.27.31,14,.31.09.69.19,1.37.28,2.06l-20.16,1.92C345.69,650.91,345.67,651.91,345.65,652.91Z"/><path class="cls-4" d="M367.75,641.61,379.93,635l9.59-2.86a9.63,9.63,0,0,0,1,2.51c1,1.17,2.21,2.19,3.34,3.27A25.26,25.26,0,0,0,396,633c.33-1.6-.05-3.35-.12-5,1.58,1.22,4.13,2.19,4.52,3.71.68,2.71,1,6.25-.25,8.53-1.73,3.18-5,3.22-8.67,1.52-11.14-5.21-12-4.91-21.25,3.89Z"/><path class="cls-4" d="M252.94,793.09l-13.62-12.62c.18-1,.53-2.86.92-5-1.78.4-3.51,1.37-4.52.87-1.46-.72-2.39-2.5-3.55-3.84,1.51-1,3.7-3.29,4.41-2.89a39.64,39.64,0,0,1,7.42,6c2.47,2.33,4.43,5.3,7.16,7.23C255.63,786.07,252.34,789.45,252.94,793.09Z"/><path class="cls-4" d="M196,698.24l-3.33-18.87c6.79,2.89,8.74,8.55,8.85,15.34C201.59,699,200.12,700.64,196,698.24Z"/><path class="cls-4" d="M488.33,683.8c-1,.72-2,2-3.07,2-.89,0-1.81-1.37-2.71-2.13,1.71-1.26,3.28-3.07,5.19-3.55,1-.25,3.5,1.64,3.75,2.87.78,4,2.61,8.23-1.95,11.57-1.51,1.1-2.06,3.44-3.31,5-.81,1-2,2.21-3.17,2.34a3.42,3.42,0,0,1-2.55-2.28c-.05-1.15,1-2.49,1.83-3.48,1.8-2,4.1-3.69,5.63-5.89,1.11-1.58,1.32-3.8,1.94-5.73Z"/><path class="cls-4" d="M498.19,639.32l-5.38,35-2-.18c.32-4.19.62-8.38,1-12.57.42-5.3.91-10.6,1.28-15.9C493.26,642,494.51,639.41,498.19,639.32Z"/><path class="cls-4" d="M399.89,625l9.95-4.44c2.61,2.27,5.32,4.43,7.78,6.85.68.66.6,2.09.86,3.17-1.17,0-2.52.26-3.47-.22-1.26-.64-2.09-2.07-3.31-2.85a8.18,8.18,0,0,0-5.58-1.33c.73,1.71,1.45,3.41,2.18,5.11l-1.24,1.2Z"/><path class="cls-4" d="M194.89,676l-1.11-3.33a2.76,2.76,0,0,1,0-1.08c1.33-2.64,2.63-5.29,4.17-7.8.14-.23,2.62.41,2.64.73.22,3.39.52,6.86-.11,10.14C200.36,675.48,196.85,675.61,194.89,676Z"/><path class="cls-4" d="M208.18,736,203,734.73a45,45,0,0,0,1.95-4.66,52.88,52.88,0,0,0,1-5.19c.73-.11,1.45-.28,2.18-.32,2-.13,4-.21,6-.31l-3.94,4.65C209.61,731,208.9,733.48,208.18,736Z"/><path class="cls-4" d="M194.1,659.27c-.5-4.39-1.15-7.71-1.08-11,0-1.13,1.87-2.22,2.88-3.33C197,646,198.76,647,199,648.23,199.56,652,200.09,656,194.1,659.27Z"/><path class="cls-4" d="M271.22,804.3l-5.71-8c6.8.54,6.8.54,13.72,10.25Z"/><path class="cls-4" d="M487.89,704.88c1.11,2.06,2,3.75,2.9,5.4-1.94,1.23-3.34,2.47-5,3.05-1.47.52-3.19.31-4.8.43.39-1.49.39-3.32,1.28-4.4C483.62,707.75,485.58,706.67,487.89,704.88Z"/><path class="cls-4" d="M464.21,790.34c-.46-8.44,2.71-11.36,10.13-10.66Z"/><path class="cls-4" d="M221.43,765.05v-12.9l7.37,4.49Z"/><path class="cls-4" d="M468.21,756.5c2.8,5.56,5.25,10.45,7.71,15.33l-1.41.67C473.13,767,462,765.41,468.21,756.5Z"/><path class="cls-4" d="M261.33,791.54c1.5-2.95,2-4.86,3.17-5.95a7.22,7.22,0,0,1,4.86-2c1.12.09,2.07,2.14,3.09,3.32a46.43,46.43,0,0,1-4.3,2.39C266.51,790,264.74,790.46,261.33,791.54Z"/><path class="cls-4" d="M482.26,666.19c-.49-.8-1.24-1.46-1.15-2,.5-2.71,1.2-5.38,1.83-8.07,1,.57,2.54,1,2.77,1.73C486.72,661.31,485.94,664.24,482.26,666.19Z"/><path class="cls-4" d="M198.61,606.11c1.28,2.57,2.59,4,2.53,5.44,0,1.17-1.72,2.27-2.67,3.4-1.14-1.46-2.75-2.78-3.22-4.42C195,609.7,196.88,608.28,198.61,606.11Z"/><path class="cls-4" d="M203.75,716l-2.26,9c-2.86-3-2.25-6-1.06-9l1-3.76,1.26,0C203.07,713.5,203.41,714.75,203.75,716Z"/><path class="cls-4" d="M462.62,789.87c-2.09,3.44-4.09,1.38-6-.49-2.81-2.78-2.91-5.15,1.73-4.59C459.91,785,461.11,788,462.62,789.87Z"/><path class="cls-4" d="M482.66,754.47c-1.24-1.93-2.58-3.09-2.44-4s1.66-2.64,2.57-2.64a3.69,3.69,0,0,1,2.72,2.49C485.56,751.34,484.11,752.46,482.66,754.47Z"/><path class="cls-4" d="M415.91,618.91l5.95-1.28c.16,1.3.31,2.59.47,3.89h-6.16C416.09,620.65,416,619.78,415.91,618.91Z"/><path class="cls-4" d="M367,652.13l5.52.9c-.21,1.13-.43,2.26-.65,3.39L366.44,655Z"/><path class="cls-4" d="M255.62,775.88l-3.38-4.6c.86-.47,2.26-1.53,2.47-1.33a35.07,35.07,0,0,1,3.41,4.14Z"/><path class="cls-4" d="M207.08,742.63,206,739.3a48.08,48.08,0,0,1,5.37.88,7.81,7.81,0,0,1,2.9,1.77c.17.15-.44,1.75-.72,1.76a15.88,15.88,0,0,1-3.4-.46C209.1,743.06,208.09,742.84,207.08,742.63Z"/><path class="cls-4" d="M427.77,622.25l2.45,2.58L427,627.91c-.73-.82-2.21-1.93-2-2.4C425.35,624.37,426.57,623.53,427.77,622.25Z"/><path class="cls-4" d="M199.9,628.61v7.15l-2,0q-.21-3.7-.44-7.39Z"/><path class="cls-4" d="M495.5,625.34V603.08H496v22.69Z"/><path class="cls-7" d="M757.74,392c6.23,15,12.59,29.92,13.93,46.39.86,10.64,2.57,21.27,2.62,31.91.13,22.86.1,45.75-1.21,68.56-.68,11.82-4.12,23.5-6.48,35.21-1.7,8.47-3.67,16.9-5.52,25.34-2.85,8.94-5.59,17.92-8.58,26.81-3.1,9.22-6.45,18.37-9.68,27.55l-2.31.11a35.22,35.22,0,0,1-1-4.56c6.54-2.19,5.46-8.89,7.34-13.39,3-7.16,4.14-15.11,6.06-22.72a11.45,11.45,0,0,1,.72-2.66c4.76-8.69,5.81-18.3,7.46-27.84.92-5.29,3.35-10.32,5.1-15.48a9.71,9.71,0,0,0,.44-1.6c2.15-15.73,6.45-31.11,4.81-47.42-1.14-11.29.58-22.84.52-34.28,0-10.32-.52-20.65-1.27-30.94-.64-8.77-1.15-17.68-3.17-26.17-2.33-9.77-6.15-19.2-9.63-28.66-.49-1.33-2.74-2-4.79-3.4Z"/><path class="cls-4" d="M328.5,430.39h9.37l-.05,1.46h-9.37C328.46,431.36,328.48,430.88,328.5,430.39Z"/><path class="cls-4" d="M61.59,396.24l-6.35,11.51-1.62-.91q3.29-5.62,6.55-11.27Z"/></g></svg>